G04 MADE WITH FRITZING*
G04 WWW.FRITZING.ORG*
G04 DOUBLE SIDED*
G04 HOLES PLATED*
G04 CONTOUR ON CENTER OF CONTOUR VECTOR*
%ASAXBY*%
%FSLAX23Y23*%
%MOIN*%
%OFA0B0*%
%SFA1.0B1.0*%
%ADD10C,0.049370*%
%ADD11C,0.081889*%
%ADD12C,0.081917*%
%ADD13C,0.135984*%
%ADD14C,0.085000*%
%ADD15C,0.150000*%
%ADD16C,0.148890*%
%ADD17C,0.078000*%
%ADD18C,0.088000*%
%ADD19R,0.057244X0.053307*%
%ADD20R,0.085000X0.085000*%
%ADD21R,0.088740X0.049370*%
%ADD22R,0.049370X0.088740*%
%ADD23R,0.088000X0.088000*%
%ADD24C,0.010000*%
%LNMASK0*%
G90*
G70*
G54D10*
X1954Y2489D03*
X679Y439D03*
X579Y1064D03*
X654Y864D03*
X629Y1164D03*
X829Y1164D03*
G54D11*
X329Y2039D03*
X429Y2039D03*
X529Y2039D03*
X629Y2039D03*
G54D12*
X729Y2039D03*
G54D11*
X829Y2039D03*
X929Y2039D03*
X1029Y2039D03*
X1129Y2039D03*
G54D12*
X1229Y2039D03*
G54D11*
X1329Y2039D03*
G54D12*
X1429Y2039D03*
G54D11*
X1529Y2039D03*
X1629Y2039D03*
X1729Y2039D03*
X1829Y2039D03*
G54D12*
X1929Y2039D03*
G54D11*
X2029Y2039D03*
X2129Y2039D03*
X2229Y2039D03*
X2229Y2139D03*
X2129Y2139D03*
X2029Y2139D03*
G54D12*
X1929Y2139D03*
G54D11*
X1829Y2139D03*
X1729Y2139D03*
X1629Y2139D03*
X1529Y2139D03*
G54D12*
X1429Y2139D03*
G54D11*
X1329Y2139D03*
G54D12*
X1229Y2139D03*
G54D11*
X1129Y2139D03*
X1029Y2139D03*
X929Y2139D03*
X829Y2139D03*
G54D12*
X729Y2139D03*
G54D11*
X629Y2139D03*
X529Y2139D03*
X429Y2139D03*
X329Y2139D03*
G54D13*
X3204Y148D03*
X3204Y2739D03*
X154Y2739D03*
X2420Y2076D03*
X139Y2074D03*
X139Y150D03*
G54D10*
X579Y1889D03*
X504Y1839D03*
X2604Y1264D03*
X2704Y1239D03*
X2504Y1289D03*
X2304Y1339D03*
X2404Y1314D03*
G54D14*
X1504Y864D03*
X1604Y864D03*
X1704Y864D03*
G54D10*
X2304Y1264D03*
G54D15*
X454Y539D03*
X214Y539D03*
X334Y349D03*
G54D16*
X179Y864D03*
X179Y1753D03*
G54D14*
X804Y1039D03*
X804Y1339D03*
X904Y1039D03*
X904Y1339D03*
X1004Y1039D03*
X1004Y1339D03*
X1104Y1039D03*
X1104Y1339D03*
X1204Y1039D03*
X1204Y1339D03*
X1304Y1039D03*
X1304Y1339D03*
X1404Y1039D03*
X1404Y1339D03*
X1504Y1039D03*
X1504Y1339D03*
X1604Y1039D03*
X1604Y1339D03*
X1704Y1039D03*
X1704Y1339D03*
X1804Y1039D03*
X1804Y1339D03*
X1904Y1039D03*
X1904Y1339D03*
X2004Y1039D03*
X2004Y1339D03*
X2104Y1039D03*
X2104Y1339D03*
X2604Y639D03*
X2604Y339D03*
X2504Y639D03*
X2504Y339D03*
X2404Y639D03*
X2404Y339D03*
X2304Y639D03*
X2304Y339D03*
X2204Y639D03*
X2204Y339D03*
X2104Y639D03*
X2104Y339D03*
X2004Y639D03*
X2004Y339D03*
X1904Y639D03*
X1904Y339D03*
X1804Y639D03*
X1804Y339D03*
X1604Y639D03*
X1604Y339D03*
X1504Y639D03*
X1504Y339D03*
X1404Y639D03*
X1404Y339D03*
X1304Y639D03*
X1304Y339D03*
X1204Y639D03*
X1204Y339D03*
X1104Y639D03*
X1104Y339D03*
X1004Y639D03*
X1004Y339D03*
X904Y639D03*
X904Y339D03*
X804Y639D03*
X804Y339D03*
G54D17*
X2979Y1514D03*
X2979Y1614D03*
X2979Y1714D03*
X2979Y1814D03*
X2679Y1814D03*
X2679Y1714D03*
X2679Y1614D03*
X2679Y1514D03*
G54D14*
X2079Y2290D03*
X2079Y2590D03*
X2179Y2290D03*
X2179Y2590D03*
X2279Y2290D03*
X2279Y2590D03*
X2379Y2290D03*
X2379Y2590D03*
X2479Y2290D03*
X2479Y2590D03*
X2579Y2290D03*
X2579Y2590D03*
X2679Y2290D03*
X2679Y2590D03*
X2779Y2290D03*
X2779Y2590D03*
X2879Y2290D03*
X2879Y2590D03*
X2979Y2290D03*
X2979Y2590D03*
X829Y2289D03*
X829Y2589D03*
X929Y2289D03*
X929Y2589D03*
X1029Y2289D03*
X1029Y2589D03*
X1129Y2289D03*
X1129Y2589D03*
X1229Y2289D03*
X1229Y2589D03*
X1329Y2289D03*
X1329Y2589D03*
X1429Y2289D03*
X1429Y2589D03*
X1529Y2289D03*
X1529Y2589D03*
X1629Y2289D03*
X1629Y2589D03*
X1729Y2289D03*
X1729Y2589D03*
G54D18*
X454Y1464D03*
X454Y1364D03*
X454Y1264D03*
X454Y1164D03*
X454Y1064D03*
X454Y964D03*
X3204Y339D03*
X3204Y439D03*
X3204Y539D03*
X3204Y639D03*
X3204Y739D03*
X3204Y839D03*
X3204Y939D03*
X3204Y1039D03*
X3204Y1139D03*
X2904Y339D03*
X2904Y439D03*
X2904Y539D03*
X2904Y639D03*
X2904Y739D03*
X2904Y839D03*
X2904Y939D03*
X2904Y1039D03*
X2904Y1139D03*
X1704Y139D03*
X1804Y139D03*
X1904Y139D03*
X2004Y139D03*
X2104Y139D03*
X2204Y139D03*
X2304Y139D03*
X2404Y139D03*
X2504Y139D03*
X2604Y139D03*
X1529Y1739D03*
X1429Y1739D03*
X1329Y1739D03*
X1229Y1739D03*
X1129Y1739D03*
X1029Y1739D03*
X929Y1739D03*
X829Y1739D03*
X2979Y2790D03*
X2879Y2790D03*
X2779Y2790D03*
X2679Y2790D03*
X2579Y2790D03*
X2479Y2790D03*
X2379Y2790D03*
X2279Y2790D03*
X2179Y2790D03*
X1729Y2789D03*
X1629Y2789D03*
X1529Y2789D03*
X1429Y2789D03*
X1329Y2789D03*
X1229Y2789D03*
X1129Y2789D03*
X1029Y2789D03*
X929Y2789D03*
X704Y139D03*
X804Y139D03*
X904Y139D03*
X1004Y139D03*
X1104Y139D03*
X1204Y139D03*
X1304Y139D03*
X1404Y139D03*
X1504Y139D03*
X1604Y139D03*
G54D10*
X2579Y939D03*
X2504Y1039D03*
X2404Y1164D03*
G54D18*
X3204Y1364D03*
X3204Y1464D03*
X3204Y1564D03*
X3204Y1664D03*
X3204Y1764D03*
X3204Y1864D03*
G54D19*
X304Y1064D03*
X371Y1064D03*
X304Y1164D03*
X371Y1164D03*
X579Y1789D03*
X646Y1789D03*
X654Y1864D03*
X721Y1864D03*
G54D20*
X1604Y864D03*
X804Y1039D03*
X2604Y639D03*
X1604Y639D03*
X2079Y2290D03*
X829Y2289D03*
G54D21*
X2504Y489D03*
X1904Y489D03*
X2304Y489D03*
X2604Y489D03*
X2004Y489D03*
X2404Y489D03*
X2204Y489D03*
X2104Y489D03*
X2279Y2440D03*
X1029Y2439D03*
X1504Y489D03*
G54D22*
X1929Y2689D03*
G54D21*
X2879Y2439D03*
X1629Y2439D03*
X904Y489D03*
X2479Y2439D03*
X1229Y2439D03*
X1304Y489D03*
X2179Y2440D03*
X929Y2439D03*
X1604Y489D03*
X2779Y2440D03*
X1529Y2439D03*
X1004Y489D03*
X2379Y2440D03*
X1129Y2439D03*
X1404Y489D03*
X2579Y2439D03*
X1329Y2439D03*
X1204Y489D03*
X2679Y2439D03*
X1429Y2439D03*
X1104Y489D03*
X2504Y439D03*
X2604Y439D03*
X1904Y439D03*
X2204Y439D03*
X2404Y439D03*
X2004Y439D03*
X2304Y439D03*
X2104Y439D03*
X2279Y2489D03*
X1029Y2489D03*
X1504Y439D03*
X2179Y2489D03*
X929Y2489D03*
X1604Y439D03*
G54D22*
X1979Y2689D03*
G54D21*
X2879Y2489D03*
X1629Y2489D03*
X904Y439D03*
X2579Y2489D03*
X1329Y2489D03*
X1204Y439D03*
X2379Y2489D03*
X1129Y2489D03*
X1404Y439D03*
X2779Y2489D03*
X1529Y2489D03*
X1004Y439D03*
X2479Y2489D03*
X1229Y2489D03*
X1304Y439D03*
X2679Y2489D03*
X1429Y2489D03*
X1104Y439D03*
G54D23*
X454Y1464D03*
X3204Y339D03*
X2904Y339D03*
X1704Y139D03*
X1529Y1739D03*
X2979Y2790D03*
X1729Y2789D03*
X704Y139D03*
X3204Y1364D03*
G54D24*
G36*
X627Y2669D02*
X654Y2697D01*
X710Y2641D01*
X682Y2613D01*
X627Y2669D01*
G37*
D02*
G36*
X662Y2703D02*
X690Y2731D01*
X746Y2676D01*
X718Y2648D01*
X662Y2703D01*
G37*
D02*
G04 End of Mask0*
M02*