G04 MADE WITH FRITZING*
G04 WWW.FRITZING.ORG*
G04 DOUBLE SIDED*
G04 HOLES PLATED*
G04 CONTOUR ON CENTER OF CONTOUR VECTOR*
%ASAXBY*%
%FSLAX23Y23*%
%MOIN*%
%OFA0B0*%
%SFA1.0B1.0*%
%ADD10R,0.047244X0.043307*%
%ADD11R,0.078740X0.039370*%
%ADD12R,0.039370X0.078740*%
%ADD13R,0.001000X0.001000*%
%LNPASTEMASK0*%
G90*
G70*
G54D10*
X304Y1064D03*
X371Y1064D03*
X304Y1164D03*
X371Y1164D03*
X579Y1789D03*
X646Y1789D03*
X654Y1864D03*
X721Y1864D03*
G54D11*
X2504Y489D03*
X1904Y489D03*
X2304Y489D03*
X2604Y489D03*
X2004Y489D03*
X2404Y489D03*
X2204Y489D03*
X2104Y489D03*
X2279Y2440D03*
X1029Y2439D03*
X1504Y489D03*
G54D12*
X1929Y2689D03*
G54D11*
X2879Y2439D03*
X1629Y2439D03*
X904Y489D03*
X2479Y2439D03*
X1229Y2439D03*
X1304Y489D03*
X2179Y2440D03*
X929Y2439D03*
X1604Y489D03*
X2779Y2440D03*
X1529Y2439D03*
X1004Y489D03*
X2379Y2440D03*
X1129Y2439D03*
X1404Y489D03*
X2579Y2439D03*
X1329Y2439D03*
X1204Y489D03*
X2679Y2439D03*
X1429Y2439D03*
X1104Y489D03*
X2504Y439D03*
X2604Y439D03*
X1904Y439D03*
X2204Y439D03*
X2404Y439D03*
X2004Y439D03*
X2304Y439D03*
X2104Y439D03*
X2279Y2489D03*
X1029Y2489D03*
X1504Y439D03*
X2179Y2489D03*
X929Y2489D03*
X1604Y439D03*
G54D12*
X1979Y2689D03*
G54D11*
X2879Y2489D03*
X1629Y2489D03*
X904Y439D03*
X2579Y2489D03*
X1329Y2489D03*
X1204Y439D03*
X2379Y2489D03*
X1129Y2489D03*
X1404Y439D03*
X2779Y2489D03*
X1529Y2489D03*
X1004Y439D03*
X2479Y2489D03*
X1229Y2489D03*
X1304Y439D03*
X2679Y2489D03*
X1429Y2489D03*
X1104Y439D03*
G36*
X627Y2669D02*
X654Y2697D01*
X710Y2641D01*
X682Y2613D01*
X627Y2669D01*
G37*
D02*
G36*
X662Y2703D02*
X690Y2731D01*
X746Y2676D01*
X718Y2648D01*
X662Y2703D01*
G37*
D02*
G54D13*
D02*
G04 End of PasteMask0*
M02*