; NON-PLATED HOLES START AT T1
; THROUGH (PLATED) HOLES START AT T100
M48
INCH
T1C0.125984
T100C0.015748
T101C0.038000
T102C0.044111
T103C0.044139
T104C0.035000
T105C0.061111
T106C0.032000
T107C0.100000
%
T1
X001540Y027394
X032040Y027394
X001391Y001495
X024201Y020761
X001391Y020741
X032040Y001483
T100
X024040Y011644
X026040Y012644
X025040Y012894
X008290Y011644
X006790Y004394
X019540Y024894
X025040Y010394
X025790Y009394
X005040Y018394
X005790Y010644
X027040Y012394
X006290Y011644
X023040Y013394
X005790Y018894
X024040Y013144
X023040Y012644
X006540Y008644
T101
X010290Y017394
X028790Y027896
X029040Y006394
X026790Y027896
X017040Y001394
X029040Y008394
X029040Y009394
X018040Y001394
X029040Y004394
X013040Y001394
X015040Y001394
X009290Y017394
X032040Y008394
X029790Y027896
X012040Y001394
X021790Y027896
X022790Y027896
X016040Y001394
X024790Y027896
X027790Y027896
X032040Y007394
X008290Y017394
X004540Y011644
X010040Y001394
X029040Y010394
X015290Y017394
X015290Y027894
X013290Y027894
X004540Y014644
X026040Y001394
X032040Y009394
X032040Y005394
X020040Y001394
X022040Y001394
X023790Y027896
X004540Y012644
X016290Y027894
X010290Y027894
X017290Y027894
X008040Y001394
X029040Y003394
X012290Y027894
X009040Y001394
X032040Y004394
X011290Y017394
X007040Y001394
X032040Y015644
X029040Y005394
X029040Y007394
X011040Y001394
X004540Y013644
X023040Y001394
X021040Y001394
X009290Y027894
X029040Y011394
X019040Y001394
X025040Y001394
X004540Y010644
X032040Y013644
X025790Y027896
X014290Y017394
X013290Y017394
X032040Y017644
X011290Y027894
X024040Y001394
X004540Y009644
X032040Y010394
X032040Y014644
X032040Y016644
X014040Y001394
X032040Y018644
X012290Y017394
X032040Y003394
X014290Y027894
X032040Y006394
X032040Y011394
T102
X009290Y021394
X020290Y021394
X017290Y020394
X006290Y020394
X021290Y021394
X017290Y021394
X010290Y020394
X006290Y021394
X013290Y021394
X003290Y020394
X015290Y020394
X009290Y020394
X010290Y021394
X008290Y021394
X005290Y021394
X022290Y020394
X003290Y021394
X013290Y020394
X022290Y021394
X004290Y021394
X020290Y020394
X018290Y021394
X016290Y021394
X015290Y021394
X011290Y020394
X021290Y020394
X008290Y020394
X016290Y020394
X004290Y020394
X011290Y021394
X005290Y020394
X018290Y020394
T103
X014290Y021394
X007290Y021394
X012290Y021394
X019290Y021394
X007290Y020394
X019290Y020394
X012290Y020394
X014290Y020394
T104
X009290Y025894
X020790Y025896
X021790Y025896
X012040Y003394
X013040Y010394
X015040Y010394
X010040Y010394
X008040Y006394
X020040Y003394
X016290Y022894
X018040Y006394
X014040Y006394
X021040Y013394
X012040Y010394
X028790Y025896
X012040Y006394
X029790Y022896
X020790Y022896
X028790Y022896
X020040Y006394
X013290Y022894
X024790Y025896
X011040Y013394
X019040Y006394
X010040Y013394
X017040Y008644
X019040Y010394
X012290Y022894
X010290Y022894
X013040Y013394
X025040Y006394
X016040Y013394
X015040Y013394
X015040Y003394
X015040Y006394
X018040Y013394
X008040Y003394
X011040Y006394
X017290Y025894
X009290Y022894
X023790Y022896
X009040Y003394
X012290Y025894
X011040Y010394
X022790Y022896
X008290Y022894
X015290Y022894
X011290Y025894
X017290Y022894
X016290Y025894
X015290Y025894
X020040Y010394
X023040Y003394
X019040Y003394
X008040Y010394
X009040Y010394
X009040Y013394
X016040Y003394
X024790Y022896
X021040Y003394
X014290Y025894
X019040Y013394
X008040Y013394
X013040Y006394
X027790Y025896
X017040Y013394
X014040Y013394
X027790Y022896
X022790Y025896
X021040Y010394
X018040Y010394
X026040Y003394
X022040Y003394
X016040Y008644
X010040Y006394
X026790Y022896
X024040Y003394
X026040Y006394
X014290Y022894
X015040Y008644
X017040Y010394
X011040Y003394
X022040Y006394
X021790Y022896
X014040Y010394
X013040Y003394
X020040Y013394
X024040Y006394
X021040Y006394
X023040Y006394
X009040Y006394
X029790Y025896
X025790Y022896
X023790Y025896
X026790Y025896
X013290Y025894
X014040Y003394
X018040Y003394
X025040Y003394
X011290Y022894
X008290Y025894
X010290Y025894
X010040Y003394
X025790Y025896
X016040Y010394
X016040Y006394
X012040Y013394
T105
X001790Y008644
X001790Y017530
T106
X026790Y017144
X029790Y018144
X029790Y015144
X029790Y017144
X026790Y018144
X029790Y016144
X026790Y015144
X026790Y016144
T107
X003340Y003494
X004540Y005394
X002140Y005394
T00
M30
